<svg xmlns="http://www.w3.org/2000/svg" viewBox="0 0 340 72">
  <!-- FC Advocacia — logo horizontal -->
  <defs>
    <linearGradient id="bg" x1="0" y1="0" x2="1" y2="1">
      <stop offset="0" stop-color="#1A3A6B"/>
      <stop offset="1" stop-color="#0A1628"/>
    </linearGradient>
  </defs>
  <!-- emblema -->
  <g>
    <rect x="2" y="4" width="64" height="64" rx="14" fill="url(#bg)"/>
    <rect x="4" y="6" width="60" height="60" rx="12" fill="none" stroke="#C9A84C" stroke-width="1.2" opacity="0.55"/>
    <g stroke="#C9A84C" stroke-width="2.2" stroke-linecap="round" fill="none" transform="translate(2,4) scale(0.667)">
      <line x1="48" y1="20" x2="48" y2="62"/>
      <line x1="26" y1="30" x2="70" y2="30"/>
      <circle cx="48" cy="18" r="3.2" fill="#C9A84C" stroke="none"/>
      <line x1="26" y1="30" x2="19" y2="45"/>
      <line x1="26" y1="30" x2="33" y2="45"/>
      <path d="M16 45 a10 10 0 0 0 20 0 z" fill="#C9A84C" stroke="none" opacity="0.9"/>
      <line x1="70" y1="30" x2="63" y2="45"/>
      <line x1="70" y1="30" x2="77" y2="45"/>
      <path d="M60 45 a10 10 0 0 0 20 0 z" fill="#C9A84C" stroke="none" opacity="0.9"/>
      <line x1="38" y1="62" x2="58" y2="62"/>
      <line x1="34" y1="67" x2="62" y2="67"/>
    </g>
  </g>
  <!-- texto -->
  <text x="80" y="38" font-family="Georgia, 'Times New Roman', serif" font-size="27"
        font-weight="700" fill="#FFFFFF" letter-spacing="1">FC <tspan fill="#C5A880">ADVOCACIA</tspan></text>
  <text x="81" y="58" font-family="Inter, Arial, sans-serif" font-size="11"
        fill="#8899AA" letter-spacing="2.5">DR. FÁBIO CUNHA · OAB/RO 10.849</text>
</svg>
